HIERARCHY
ROOT Hips
{
	OFFSET 0.00 0.00 0.00
	CHANNELS 6 Xposition Yposition Zposition Zrotation Yrotation Xrotation
	JOINT Spine
	{
		OFFSET	-0.0066	10.8226	-0.4307
		CHANNELS 3 Zrotation Yrotation Xrotation
		JOINT Spine1
		{
			OFFSET	0.0000	12.6263	-0.2112
			CHANNELS 3 Zrotation Yrotation Xrotation
			JOINT Spine2
			{
				OFFSET	0.0000	14.4301	0.0000
				CHANNELS 3 Zrotation Yrotation Xrotation
				JOINT Neck
				{
					OFFSET	0.0000	16.2338	0.0000
					CHANNELS 3 Zrotation Yrotation Xrotation
					JOINT Head
					{
						OFFSET	0.0000	6.7614	0.0000
						CHANNELS 3 Zrotation Yrotation Xrotation
						End Site
						{
							OFFSET 0.0000 23.0037 2.4456
						}
					}
				}
				JOINT LeftShoulder
				{
					OFFSET	10.9527	13.3171	-1.4436
					CHANNELS 3 Zrotation Yrotation Xrotation
					JOINT LeftArm
					{
						OFFSET	12.5621	-10.8187	0.1359
						CHANNELS 3 Zrotation Yrotation Xrotation
						JOINT LeftForeArm
						{
							OFFSET	18.8844	-21.6036	-1.0453
							CHANNELS 3 Zrotation Yrotation Xrotation
							JOINT LeftHand
							{
								OFFSET	13.3138	-14.1460	5.6551
								CHANNELS 3 Zrotation Yrotation Xrotation
								JOINT LeftHandThumb1
								{
									OFFSET	-0.2234	-4.5184	5.7249
									CHANNELS 3 Zrotation Yrotation Xrotation
									JOINT LeftHandThumb2
									{
										OFFSET	-0.1787	-3.6147	4.5798
										CHANNELS 3 Zrotation Yrotation Xrotation
										JOINT LeftHandThumb3
										{
											OFFSET	0.3288	-5.9239	3.0121
											CHANNELS 3 Zrotation Yrotation Xrotation
											End Site
											{
												OFFSET 0.7426 -5.8978 -0.2421
											}
										}
									}
								}
								JOINT LeftHandIndex1
								{
									OFFSET	9.9406	-11.6381	6.4224
									CHANNELS 3 Zrotation Yrotation Xrotation
									JOINT LeftHandIndex2
									{
										OFFSET	3.7566	-3.9716	0.6536
										CHANNELS 3 Zrotation Yrotation Xrotation
										JOINT LeftHandIndex3
										{
											OFFSET	0.1239	-4.1016	0.5838
											CHANNELS 3 Zrotation Yrotation Xrotation
											End Site
											{
												OFFSET -0.5425 -5.8416 0.4926
											}
										}
									}
								}
								JOINT LeftHandMiddle1
								{
									OFFSET	9.7285	-13.5636	1.1502
									CHANNELS 3 Zrotation Yrotation Xrotation
									JOINT LeftHandMiddle2
									{
										OFFSET	3.6112	-4.6700	-0.0223
										CHANNELS 3 Zrotation Yrotation Xrotation
										JOINT LeftHandMiddle3
										{
											OFFSET	-0.9717	-4.4064	0.5814
											CHANNELS 3 Zrotation Yrotation Xrotation
											End Site
											{
												OFFSET -0.5473 -6.5481 0.5540
											}
										}
									}
								}
								JOINT LeftHandRing1
								{
									OFFSET	7.3735	-14.4731	-3.1009
									CHANNELS 3 Zrotation Yrotation Xrotation
									JOINT LeftHandRing2
									{
										OFFSET	3.1552	-4.3381	-0.6877
										CHANNELS 3 Zrotation Yrotation Xrotation
										JOINT LeftHandRing3
										{
											OFFSET	-0.6730	-3.8541	0.3914
											CHANNELS 3 Zrotation Yrotation Xrotation
											End Site
											{
												OFFSET -1.3498 -5.2602 0.6271
											}
										}
									}
								}
								JOINT LeftHandPinky1
								{
									OFFSET	4.8259	-14.8922	-6.2759
									CHANNELS 3 Zrotation Yrotation Xrotation
									JOINT LeftHandPinky2
									{
										OFFSET	1.6777	-3.4757	-0.9769
										CHANNELS 3 Zrotation Yrotation Xrotation
										JOINT LeftHandPinky3
										{
											OFFSET	-0.4572	-2.7695	-0.0728
											CHANNELS 3 Zrotation Yrotation Xrotation
											End Site
											{
												OFFSET -1.7306 -3.7265 0.8577
											}
										}
									}
								}
							}
						}
					}
				}
				JOINT RightShoulder
				{
					OFFSET	-10.9527	13.3171	-1.4436
					CHANNELS 3 Zrotation Yrotation Xrotation
					JOINT RightArm
					{
						OFFSET	-12.5621	-10.8187	0.1359
						CHANNELS 3 Zrotation Yrotation Xrotation
						JOINT RightForeArm
						{
							OFFSET	-12.9927	-15.1138	-1.1998
							CHANNELS 3 Zrotation Yrotation Xrotation
							JOINT RightHand
							{
								OFFSET	-19.2055	-20.6359	5.8096
								CHANNELS 3 Zrotation Yrotation Xrotation
								JOINT RightHandIndex1
								{
									OFFSET	-11.7773	-11.2003	3.5246
									CHANNELS 3 Zrotation Yrotation Xrotation
									JOINT RightHandIndex2
									{
										OFFSET	-1.8031	-2.3101	0.8667
										CHANNELS 3 Zrotation Yrotation Xrotation
										JOINT RightHandIndex3
										{
											OFFSET	-0.9561	-2.4372	0.8479
											CHANNELS 3 Zrotation Yrotation Xrotation
											End Site
											{
												OFFSET -0.3592 -3.3007 1.2418
											}
										}
									}
								}
								JOINT RightHandMiddle1
								{
									OFFSET	-11.1069	-12.6853	0.1207
									CHANNELS 3 Zrotation Yrotation Xrotation
									JOINT RightHandMiddle2
									{
										OFFSET	-1.4413	-2.9544	0.4089
										CHANNELS 3 Zrotation Yrotation Xrotation
										JOINT RightHandMiddle3
										{
											OFFSET	-0.5774	-2.5977	0.3048
											CHANNELS 3 Zrotation Yrotation Xrotation
											End Site
											{
												OFFSET -0.3601 -3.5348 0.4882
											}
										}
									}
								}
								JOINT RightHandRing1
								{
									OFFSET	-9.8468	-13.0073	-3.1392
									CHANNELS 3 Zrotation Yrotation Xrotation
									JOINT RightHandRing2
									{
										OFFSET	-0.6811	-2.8000	-0.1504
										CHANNELS 3 Zrotation Yrotation Xrotation
										JOINT RightHandRing3
										{
											OFFSET	-0.4028	-2.2868	-0.2694
											CHANNELS 3 Zrotation Yrotation Xrotation
											End Site
											{
												OFFSET 0.1853 -3.2500 0.2083
											}
										}
									}
								}
								JOINT RightHandPinky1
								{
									OFFSET	-7.8050	-12.5466	-5.9736
									CHANNELS 3 Zrotation Yrotation Xrotation
									JOINT RightHandPinky2
									{
										OFFSET	0.0105	-2.2470	-0.3620
										CHANNELS 3 Zrotation Yrotation Xrotation
										JOINT RightHandPinky3
										{
											OFFSET	0.2970	-1.8184	-0.0591
											CHANNELS 3 Zrotation Yrotation Xrotation
											End Site
											{
												OFFSET -0.0337 -2.1669 -0.2214
											}
										}
									}
								}
								JOINT RightHandThumb1
								{
									OFFSET	-1.4515	-3.9395	1.6913
									CHANNELS 3 Zrotation Yrotation Xrotation
									JOINT RightHandThumb2
									{
										OFFSET	-1.1612	-3.1516	3.3390
										CHANNELS 3 Zrotation Yrotation Xrotation
										JOINT RightHandThumb3
										{
											OFFSET	-0.2119	-3.9644	3.2468
											CHANNELS 3 Zrotation Yrotation Xrotation
											End Site
											{
												OFFSET -0.4081 -3.7882 1.9049
											}
										}
									}
								}
							}
						}
					}
				}
			}
		}
	}
	JOINT LeftUpLeg
	{
		OFFSET	13.2805	-6.0125	-0.5314
		CHANNELS 3 Zrotation Yrotation Xrotation
		JOINT LeftLeg
		{
			OFFSET	0.4217	-52.0404	1.5006
			CHANNELS 3 Zrotation Yrotation Xrotation
			JOINT LeftFoot
			{
				OFFSET	0.2212	-50.8660	-3.6051
				CHANNELS 3 Zrotation Yrotation Xrotation
				JOINT LeftToeBase
				{
					OFFSET	2.8257	-10.2731	19.2966
					CHANNELS 3 Zrotation Yrotation Xrotation
					End Site
					{
						OFFSET 0.8536 0.3355 9.0832
					}
				}
			}
		}
	}
	JOINT RightUpLeg
	{
		OFFSET	-13.2937	-6.0125	-0.5314
		CHANNELS 3 Zrotation Yrotation Xrotation
		JOINT RightLeg
		{
			OFFSET	-0.4217	-52.0404	1.5006
			CHANNELS 3 Zrotation Yrotation Xrotation
			JOINT RightFoot
			{
				OFFSET	-0.2212	-50.8660	-3.6051
				CHANNELS 3 Zrotation Yrotation Xrotation
				JOINT RightToeBase
				{
					OFFSET	-2.8257	-10.2731	19.2966
					CHANNELS 3 Zrotation Yrotation Xrotation
					End Site
					{
						OFFSET -0.8536 0.3355 9.0832
					}
				}
			}
		}
	}
}
MOTION
Frames: 7
Frame Time: 0.0333333
12.4744 109.7556 6.9785 -4.1619 8.2048 1.7432 -3.4504 3.0634 1.4542 -5.3312 5.7324 3.1736 -5.3408 5.6959 3.2141 -7.1679 -3.4714 -2.2021 10.5036 -28.3156 1.7560 6.1956 -3.4108 0.7748 4.0643 -28.7551 -13.5311 56.7166 -29.2133 -98.9038 26.5710 -12.6042 -0.1749 6.3535 14.1137 11.3601 -3.4730 -4.0985 -15.9343 -6.1365 -0.3032 -14.8949 -63.4993 -18.1362 -0.7795 -27.6671 -14.6534 -13.0558 -38.7106 -8.4609 -12.1702 -64.8022 -24.4301 -8.1846 -11.9815 -2.9955 -10.8174 -44.6061 -7.4110 -10.5208 -68.2273 -29.1498 -12.9456 -9.3918 -2.0981 -7.0339 -34.6836 -4.9014 -12.5968 -56.3955 -28.1567 -20.3425 -23.7322 -4.3260 -15.5814 -23.4042 -1.6625 -4.9889 -24.0092 1.2076 -0.1067 -17.2502 15.5773 -59.6489 -26.1491 40.8257 -68.2612 -21.3207 42.0520 29.1095 45.4243 5.5790 0.8516 20.0700 8.8584 -0.8628 19.9116 7.1026 1.0930 28.3792 6.4124 -5.1640 32.2632 9.5718 -6.7698 31.1884 6.3744 -4.4770 17.2405 8.7053 -12.7767 25.8346 2.9831 -11.6339 18.3802 -0.6533 0.7503 11.2323 9.6976 -17.5597 20.4186 -1.6829 -2.9706 39.6940 1.2195 -14.0295 2.6754 -15.6183 9.6343 -8.1660 -7.6905 3.1030 0.2149 0.9888 -11.7208 6.2450 0.2948 -35.0498 2.4809 -13.3247 40.6717 -8.5635 -17.2651 -9.6726 -0.0000 0.0000 -1.1400 -2.7421 -14.7629 2.6975 -10.0676 -4.4649 44.0391 17.2883 -7.5912 -6.2065 10.1773 2.8585 -23.5812 
13.1086 108.1135 7.3034 -4.6691 6.5245 1.6408 -3.8873 3.2872 2.2957 -5.8824 6.1679 4.5341 -5.8736 6.1278 4.5919 -7.0572 -3.5846 -1.7771 13.5399 -28.4440 -2.7729 5.2113 -5.3729 0.9270 -3.6429 -19.7384 -2.2821 61.3663 -27.1478 -106.3097 30.7397 -10.4400 -5.8905 6.0284 14.0591 11.2097 -3.4893 -4.0927 -15.8974 -6.8001 0.0882 -13.2117 -67.1525 -18.5449 0.4947 -33.2743 -16.7857 -12.9744 -41.8965 -9.3545 -12.4781 -68.2607 -24.9602 -6.9993 -13.8557 -3.5009 -11.2419 -46.9975 -8.0121 -10.8656 -71.5594 -30.0762 -12.3322 -11.9395 -2.5265 -7.8932 -35.8803 -5.2023 -12.9459 -58.4106 -28.8083 -20.1357 -24.9546 -4.5413 -16.0478 -24.8961 -1.8043 -5.6808 -19.7444 3.3081 -0.2004 -10.1693 11.0950 -50.7824 -48.1246 42.3789 -100.8445 -17.5754 45.5119 32.7250 45.0654 6.6197 -0.7149 17.3719 7.8278 -1.1294 19.2226 6.8566 1.0388 27.9103 6.8058 -6.2104 27.0984 8.1326 -6.5673 30.8613 6.2969 -4.4501 16.7033 8.5489 -12.5811 19.3114 2.1707 -9.9418 16.9549 -0.6965 1.1877 11.2065 9.6817 -17.0463 13.3373 -1.2714 -0.3991 38.8771 1.0995 -13.7690 2.1888 -15.7003 9.5987 -8.1660 -7.6905 3.1030 0.2212 0.9847 -11.6876 7.0845 -0.3895 -36.9247 1.0906 -13.3791 46.1761 -7.7617 -14.7033 -12.9876 -0.0000 -0.0000 -1.1885 -4.2632 -14.1285 0.9301 -10.6981 -3.2073 48.2106 15.4523 -1.3930 -4.8547 10.5874 3.1996 -26.7822 
14.0036 106.3108 7.5331 -5.1996 2.7533 1.5576 -4.3555 3.6380 3.0446 -6.4561 6.8687 5.6939 -6.4234 6.8261 5.7750 -6.4789 -3.8012 -1.6129 16.5442 -28.1322 -7.5092 4.3219 -7.1523 1.1018 -10.5178 -7.5507 6.9440 60.0270 -27.8160 -104.1457 31.5856 -10.1714 -10.5456 5.9329 14.0484 11.1428 -3.5691 -4.0639 -15.7157 -7.1962 0.3298 -12.1797 -70.0115 -19.2040 1.1515 -37.0809 -18.2098 -12.7960 -45.2158 -10.3008 -12.7454 -70.7691 -25.3166 -6.0976 -16.6003 -4.2667 -11.8348 -49.0983 -8.5515 -11.1479 -76.0555 -31.3070 -11.4738 -14.5180 -2.9995 -8.7449 -36.7605 -5.4284 -13.1990 -60.5995 -29.5006 -19.8763 -26.7962 -4.8848 -16.7426 -25.6281 -1.8805 -6.0191 -16.1913 3.1557 0.0279 -4.6463 9.7710 -45.6990 -60.6842 38.7882 -120.0276 -15.8129 46.7015 32.5710 44.9935 7.1753 -1.5153 14.0543 6.5395 -1.3901 18.3430 6.5412 0.9740 27.7373 7.0723 -6.8599 22.1567 6.7746 -6.2520 30.3831 6.1838 -4.4100 16.6540 8.3695 -11.8960 13.5561 1.6189 -8.3853 15.8725 -0.7220 1.5204 11.3158 9.6908 -16.3997 8.8707 -0.8487 1.1935 38.3830 1.0287 -13.6106 2.5856 -15.6315 9.5836 -8.1660 -7.6905 3.1030 0.1797 1.0114 -11.9056 7.8554 -0.0035 -38.2532 -0.2856 -13.3244 51.8475 -7.3574 -11.2168 -16.6648 0.0000 -0.0000 -1.0892 -6.2276 -14.2191 -1.1122 -9.0056 -0.2345 52.0094 14.9114 0.2823 -6.0605 10.3730 3.5992 -27.2584 
15.0978 104.4893 7.6204 -5.7406 -2.5576 1.4289 -4.8035 3.8280 3.6280 -6.9731 7.2622 6.5097 -6.9131 7.2192 6.6150 -5.7160 -3.9118 -1.6825 18.1124 -27.0079 -11.0607 4.5507 -7.5397 1.0859 -16.8333 4.9211 11.0039 50.2821 -31.0332 -89.0231 27.8862 -12.5097 -16.3102 6.1486 14.1147 11.1161 -3.5890 -4.0567 -15.6703 -7.4661 0.4981 -11.4639 -72.5183 -20.0033 1.5055 -38.7955 -18.8425 -12.6835 -47.4451 -10.9433 -12.8937 -73.2789 -25.8983 -5.4825 -19.6012 -5.1371 -12.4419 -50.2715 -8.8571 -11.2969 -80.3163 -32.4090 -10.5781 -16.2073 -3.3306 -9.2922 -37.1738 -5.5360 -13.3168 -62.6751 -30.1554 -19.6252 -28.5533 -5.2337 -17.3965 -25.8069 -1.8997 -6.1016 -14.1970 2.1627 0.2266 -2.0515 11.2977 -44.1747 -64.3335 36.9081 -125.9679 -17.6183 46.7967 29.8869 45.2059 7.2624 -1.5596 10.6192 5.1864 -1.5807 17.3705 6.1911 0.9079 27.8863 7.1248 -6.9045 18.4188 5.7672 -5.9362 29.9471 6.0809 -4.3726 17.0564 8.1592 -10.7427 9.4952 1.3255 -7.2599 15.2004 -0.7347 1.7272 11.5081 9.7158 -15.7580 7.0306 -0.6382 1.8405 38.1523 0.9961 -13.5365 4.3941 -15.3064 9.4146 -8.1660 -7.6905 3.1030 0.1029 1.0598 -12.3046 8.5209 1.1495 -38.8471 -1.5996 -13.1874 57.1905 -7.5108 -7.1739 -20.3858 0.0000 0.0000 -0.9109 -8.2836 -14.5142 -3.2551 -7.3588 2.2918 55.4448 14.8373 0.5931 -8.9425 7.5589 3.0598 -28.4487 
16.2859 102.9722 7.6083 -6.4552 -9.2844 1.0970 -5.0626 3.7742 4.0591 -7.2797 7.2086 7.0028 -7.1961 7.1733 7.1200 -5.1240 -3.7326 -1.9647 18.1324 -24.8478 -12.9783 5.2995 -7.1449 0.9556 -21.1799 14.0462 10.5137 33.4841 -31.1768 -63.8611 21.2565 -13.0330 -19.7486 6.4049 14.1906 11.0954 -3.5638 -4.0659 -15.7279 -7.7285 0.6645 -10.7575 -74.1179 -20.5473 1.7001 -39.1263 -18.9639 -12.6594 -48.1474 -11.1466 -12.9351 -75.6646 -26.5988 -5.0852 -21.8617 -5.8140 -12.8697 -50.5585 -8.9323 -11.3324 -82.7855 -33.0130 -10.0189 -16.7374 -3.4379 -9.4621 -37.2144 -5.5466 -13.3282 -63.9802 -30.5629 -19.4589 -29.6059 -5.4526 -17.7836 -25.6214 -1.8797 -6.0160 -14.2968 1.6456 0.2628 -2.0948 14.3473 -45.9722 -63.1370 37.5774 -123.9921 -17.9531 47.4902 30.1930 45.5677 7.1516 -1.2727 7.7438 4.0433 -1.6774 16.5323 5.8881 0.8558 28.2684 7.0395 -6.5462 15.9016 5.1012 -5.6869 29.6969 6.0220 -4.3509 17.6907 7.9937 -9.6093 7.0671 1.1884 -6.5786 14.8369 -0.7406 1.8391 11.7218 9.7477 -15.2632 6.3553 -0.5557 2.0764 38.0374 0.9800 -13.4995 6.8843 -14.8342 9.0361 -8.1660 -7.6905 3.1030 0.0389 1.0995 -12.6333 9.2626 3.0899 -38.1768 -2.6023 -12.9646 61.5667 -8.3453 -2.9370 -23.9365 -0.0000 -0.0000 -0.7778 -9.8048 -14.1797 -5.2223 -6.2340 4.7140 57.6844 14.5086 0.9677 -12.3901 4.6379 2.0794 -28.4159 
17.4140 102.2692 7.6968 -7.5212 -17.2159 0.7011 -5.1291 3.5597 4.2906 -7.4178 6.8775 7.1508 -7.3210 6.8571 7.2651 -4.7539 -3.2904 -2.4148 17.8975 -21.8226 -13.9254 5.1235 -7.9002 1.0087 -21.2330 18.2611 10.9960 18.7581 -25.4761 -40.6593 15.9581 -7.7592 -19.7683 6.4659 14.2183 11.0501 -3.5467 -4.0720 -15.7668 -8.0044 0.8425 -10.0038 -74.2999 -20.6447 1.6847 -38.7668 -18.8320 -12.6855 -47.8709 -11.0666 -12.9191 -77.3217 -27.1278 -4.8635 -22.8651 -6.1199 -13.0512 -50.4043 -8.8918 -11.3133 -83.2481 -33.1291 -9.9190 -16.5188 -3.3935 -9.3922 -36.9911 -5.4883 -13.2648 -64.2510 -30.6424 -19.4145 -29.8447 -5.5033 -17.8709 -25.1783 -1.8331 -5.8113 -15.7204 1.6102 0.2024 -3.9835 17.8468 -49.7658 -59.8098 39.1719 -118.6385 -14.9452 48.9668 34.6838 45.9773 7.0462 -0.9759 5.7879 3.2624 -1.7102 15.9510 5.6775 0.8222 28.7676 6.9531 -6.1327 14.2258 4.6642 -5.5049 29.5804 5.9946 -4.3406 18.3641 7.9677 -8.9935 5.7486 1.1262 -6.2067 14.6603 -0.7432 1.8935 11.9312 9.7840 -14.9654 5.8282 -0.4894 2.2599 37.9012 0.9610 -13.4557 8.8444 -14.4382 8.5211 -8.1660 -7.6905 3.1030 0.0437 1.0966 -12.6092 10.4328 6.0468 -35.7313 -0.0365 -11.2876 63.4254 -9.8986 -2.2610 -26.4502 -0.0000 -0.0000 -0.7401 -10.4975 -13.0557 -6.8159 -4.3126 8.2552 57.9416 13.7411 1.1776 -14.8646 2.6494 1.2251 -27.3578 
18.3091 102.7597 8.0556 -8.9305 -25.8149 0.6597 -5.1767 3.2889 4.1789 -7.5490 6.4228 6.8104 -7.4535 6.4134 6.9186 -4.4353 -2.7396 -3.0117 17.9937 -18.4480 -14.2286 4.2123 -9.6851 1.2311 -18.1297 19.6494 15.0764 11.5643 -19.5535 -27.7738 15.6996 -0.9229 -20.6890 6.3756 14.2077 10.9893 -3.5517 -4.0702 -15.7553 -8.2331 0.9927 -9.3697 -73.8724 -20.5143 1.6164 -38.3094 -18.6637 -12.7174 -47.3109 -10.9045 -12.8855 -78.2740 -27.4083 -4.7061 -22.9910 -6.1585 -13.0736 -50.1960 -8.8373 -11.2875 -82.5646 -32.9724 -10.0873 -16.2524 -3.3397 -9.3067 -36.5847 -5.3829 -13.1487 -63.8506 -30.5168 -19.4643 -29.4592 -5.4217 -17.7299 -24.6569 -1.7803 -5.5700 -16.9340 1.3303 0.1801 -7.2225 21.4104 -53.9375 -56.1082 40.5501 -112.8694 -12.3426 50.2575 38.7857 46.4055 6.9963 -0.7493 4.7135 2.8327 -1.7169 15.5669 5.5380 0.8012 29.3094 6.9533 -5.8839 13.2183 4.4041 -5.3894 29.4427 5.9623 -4.3284 19.0549 8.0900 -8.9230 5.0941 1.0985 -6.0215 14.5517 -0.7447 1.9269 12.1441 9.8260 -14.8275 5.6238 -0.4632 2.3309 37.6599 0.9276 -13.3779 9.7743 -14.2358 8.0546 -8.1660 -7.6905 3.1030 0.1277 1.0443 -12.1763 11.9520 9.8875 -31.4901 3.6947 -9.3559 62.6646 -11.7808 -2.6973 -27.7552 -0.0000 -0.0000 -0.7378 -11.2956 -11.7151 -8.1377 -0.7769 11.9282 56.3853 12.3242 1.9513 -14.5957 1.9498 0.8748 -26.0132 
